{"title":"Red Hot Chili Peppers Live from Rock In Rio 2011","uid":6701166,"size":4498030592,"categoryP":"video","categoryS":"movies_dvdr","magnet":"?xt=urn:btih:32e23b40ee4984348a9f383ccec95f651c6306b0&amp;dn=Red+Hot+Chili+Peppers+Live+from+Rock+In+Rio+2011&amp;tr=udp%3A%2F%2Ftracker.openbittorrent.com%3A80&amp;tr=udp%3A%2F%2Fopen.demonii.com%3A1337&amp;tr=udp%3A%2F%2Ftracker.coppersurfer.tk%3A6969&amp;tr=udp%3A%2F%2Fexodus.desync.com%3A6969","seeders":0,"leechers":3,"uploader":"iclev","files":1,"time":1316975052,"description":"Red Hot Chili Peppers Live from Rock In Rio 2011\nAo Vivo - TV Multishow\nDur: 102 min\n\n\nFormat                           : MPEG-PS\nOverall bit rate                 : 4 741 Kbps\n\nVideo\nID                               : 224 (0xE0)\nFormat                           : MPEG Video\nFormat version                   : Version 2\nFormat profile                   : Main@Main\nFormat settings, BVOP            : Yes\nFormat settings, Matrix          : Custom\nFormat settings, GOP             : M=3, N=15\nBit rate                         : 4 380 Kbps\nWidth                            : 720 pixels\nHeight                           : 480 pixels\nDisplay aspect ratio             : 4:3\nFrame rate                       : 29.970 fps\nStandard                         : NTSC\nColor space                      : YUV\nChroma subsampling               : 4:2:0\nBit depth                        : 8 bits\nScan type                        : Interlaced\nScan order                       : Top Field First\nCompression mode                 : Lossy\nBits/(Pixel*Frame)               : 0.423\nStream size                      : 948 MiB (93%)\n\nAudio\nID                               : 189 (0xBD)-128 (0x80)\nFormat                           : AC-3\nFormat/Info                      : Audio Coding 3\nMode extension                   : CM (complete main)\nMuxing mode                      : DVD-Video\nBit rate mode                    : Constant\nBit rate                         : 256 Kbps\nChannel(s)                       : 2 channels\nChannel positions                : Front: L R\nSampling rate                    : 48.0 KHz\nBit depth                        : 16 bits\nCompression mode                 : Lossy\nDelay relative to video          : -67ms\nStream size                      : 55.3 MiB (5%)","torrent":{"xt":"urn:btih:32e23b40ee4984348a9f383ccec95f651c6306b0","amp;dn":"Red+Hot+Chili+Peppers+Live+from+Rock+In+Rio+2011","amp;tr":["udp%3A%2F%2Ftracker.openbittorrent.com%3A80","udp%3A%2F%2Fopen.demonii.com%3A1337","udp%3A%2F%2Ftracker.coppersurfer.tk%3A6969","udp%3A%2F%2Fexodus.desync.com%3A6969"],"infoHash":"32e23b40ee4984348a9f383ccec95f651c6306b0","infoHashBuffer":{"type":"Buffer","data":[50,226,59,64,238,73,132,52,138,159,56,60,206,201,95,101,28,99,6,176]},"announce":[],"urlList":[]}}